<svg width="612" height="369" viewBox="0 0 612 369" fill="none" xmlns="http://www.w3.org/2000/svg">
<g clip-path="url(#clip0)">
<path d="M412.547 12.772C412.547 12.772 413.978 14.2476 411.526 17.1028C409.074 19.9579 411.054 26.1533 415.712 26.3111C420.369 26.469 422.628 28.2245 421.505 30.537C420.382 32.8496 419.033 38.3445 424.105 37.509C429.177 36.6735 430.78 38.4907 429.882 39.8874C428.984 41.2841 432.144 37.1098 432.144 37.1098C432.144 37.1098 434.971 40.8994 438.44 38.2466C441.909 35.5938 443.288 11.5471 436.216 11.1395C429.143 10.732 412.547 12.772 412.547 12.772Z" fill="#2F2E41"/>
<path d="M448.401 127.127L450.013 137.28H457.265L454.848 125.677L448.401 127.127Z" fill="#9F616A"/>
<path d="M458.071 131.116C458.071 131.116 467.741 139.093 465.324 139.818C462.906 140.543 454.042 149.246 452.43 149.971C450.989 150.62 435.508 155.048 437.925 149.971C440.343 144.895 445.984 141.994 445.984 141.994L447.595 133.291L458.071 131.116Z" fill="#F2F2F2"/>
<path opacity="0.1" d="M458.071 131.116C458.071 131.116 467.741 139.093 465.324 139.818C462.906 140.543 454.042 149.246 452.43 149.971C450.989 150.62 435.508 155.048 437.925 149.971C440.343 144.895 445.984 141.994 445.984 141.994L447.595 133.291L458.071 131.116Z" fill="black"/>
<path d="M458.071 119.512L459.683 129.665H466.935L464.518 118.062L458.071 119.512Z" fill="#9F616A"/>
<path d="M427.766 92.5613L438.328 61.1328C438.328 61.1328 420.599 46.6286 432.687 42.2773C444.775 37.926 447.998 59.6824 447.998 59.6824L443.969 97.3934H427.852L427.766 92.5613Z" fill="#FFB8B8"/>
<path d="M452.43 69.4727C452.43 69.4727 431.603 93.5128 434.764 97.0848C437.925 100.657 443.566 122.413 443.566 122.413C443.566 122.413 442.76 131.116 445.983 131.116C449.207 131.116 457.265 129.665 457.265 127.49C457.265 125.314 450.013 97.756 450.013 97.756L470.965 73.0987L452.43 69.4727Z" fill="#00BFA6"/>
<path d="M454.042 70.9232L474.994 60.7703C474.994 60.7703 489.499 67.2972 485.47 73.0989C481.441 78.9006 462.906 94.13 462.906 94.13C462.906 94.13 468.547 118.787 467.741 119.512C466.936 120.238 458.071 123.139 455.654 122.413C453.236 121.688 440.343 93.4048 443.566 91.9544C446.789 90.504 457.265 75.2745 457.265 75.2745L454.042 70.9232Z" fill="#00BFA6"/>
<path d="M396.827 337.076C396.827 337.076 411.332 345.054 412.944 345.054C414.556 345.054 436.313 350.13 426.643 353.756C416.973 357.382 379.904 352.306 380.71 350.13C381.516 347.954 380.71 334.901 382.322 334.901C383.933 334.901 396.827 337.076 396.827 337.076Z" fill="#2F2E41"/>
<path d="M412.944 347.229C412.944 347.229 427.449 355.207 429.061 355.207C430.673 355.207 452.43 360.283 442.76 363.909C433.09 367.535 396.021 362.459 396.827 360.283C397.633 358.108 396.827 345.054 398.439 345.054C400.05 345.054 412.944 347.229 412.944 347.229Z" fill="#2F2E41"/>
<path d="M397.633 193.484C397.633 193.484 400.05 204.362 404.08 212.34C408.109 220.317 403.274 258.028 400.856 263.83C398.439 269.631 375.069 338.527 382.322 339.252C389.574 339.977 404.08 339.252 404.08 339.252L427.449 273.257L423.42 184.781L397.633 193.484Z" fill="#575A88"/>
<path opacity="0.1" d="M397.633 193.484C397.633 193.484 400.05 204.362 404.08 212.34C408.109 220.317 403.274 258.028 400.856 263.83C398.439 269.631 375.069 338.527 382.322 339.252C389.574 339.977 404.08 339.252 404.08 339.252L427.449 273.257L423.42 184.781L397.633 193.484Z" fill="black"/>
<path d="M402.468 194.209C402.468 194.209 405.691 213.79 412.944 218.141C420.197 222.493 417.779 226.844 417.779 226.844L414.556 265.28C414.556 265.28 383.128 334.901 392.798 343.603C402.468 352.306 411.332 348.68 415.361 347.954C419.391 347.229 426.643 332 422.614 327.648C418.585 323.297 430.672 297.19 433.896 292.838C437.119 288.487 433.896 282.685 437.925 281.235C441.954 279.784 450.819 270.357 450.819 263.83C450.819 257.303 462.1 187.682 454.848 183.331C447.595 178.98 401.107 192.312 401.107 192.312L402.468 194.209Z" fill="#575A88"/>
<path d="M387.157 92.6794C396.948 92.6794 404.885 85.5362 404.885 76.7247C404.885 67.9132 396.948 60.77 387.157 60.77C377.366 60.77 369.428 67.9132 369.428 76.7247C369.428 85.5362 377.366 92.6794 387.157 92.6794Z" fill="#FFB8B8"/>
<path d="M427.449 31.7617C435.46 31.7617 441.954 25.9173 441.954 18.7079C441.954 11.4985 435.46 5.65405 427.449 5.65405C419.438 5.65405 412.944 11.4985 412.944 18.7079C412.944 25.9173 419.438 31.7617 427.449 31.7617Z" fill="#9F616A"/>
<path d="M399.244 76.7249C399.244 76.7249 408.915 92.6795 413.75 92.6795C418.585 92.6795 394.409 109.359 394.409 109.359C394.409 109.359 386.351 88.3283 384.739 87.6031C383.128 86.8779 399.244 76.7249 399.244 76.7249Z" fill="#FFB8B8"/>
<path d="M402.468 91.2292C402.468 91.2292 381.516 97.7561 382.322 99.9318C383.128 102.107 376.681 107.184 376.681 109.36C376.681 111.535 375.069 131.116 384.739 147.071C394.409 163.025 409.721 174.629 402.468 181.881C395.215 189.133 383.933 201.462 396.021 201.462C408.109 201.462 427.449 185.507 445.178 191.309C462.906 197.11 458.877 175.354 458.877 175.354C458.877 175.354 461.295 158.674 456.46 153.597C451.624 148.521 434.702 112.26 434.702 107.909C434.702 103.558 418.585 86.8779 414.556 86.8779C410.526 86.8779 402.468 91.2292 402.468 91.2292Z" fill="#8985A8"/>
<path d="M431.478 26.6851C431.478 26.6851 438.04 37.9131 438.386 39.9138C438.731 41.9145 450.013 26.6851 450.013 26.6851L437.119 18.7078L431.478 26.6851Z" fill="#9F616A"/>
<path d="M433.896 35.3878L447.595 22.334L463.712 28.8609C463.712 28.8609 478.743 58.5946 479.689 60.7703C480.635 62.9459 455.654 73.0989 453.236 73.0989C450.819 73.0989 433.896 50.6173 433.896 50.6173C433.896 50.6173 429.867 39.7391 433.896 35.3878Z" fill="#F2F2F2"/>
<path d="M427.449 52.7927V65.8469H437.119L433.939 52.7927H427.449Z" fill="#9F616A"/>
<path d="M432.966 62.5833C431.744 62.5684 430.546 62.8891 429.532 63.5027C428.518 64.1162 427.736 64.9935 427.29 66.0174C426.66 67.5506 426.873 69.162 429.867 69.8354C436.313 71.2858 437.119 69.8354 437.119 69.8354C437.119 69.8354 448.31 68.385 445.938 65.4841C443.566 62.5833 437.119 62.5833 437.119 62.5833H432.966Z" fill="#9F616A"/>
<path d="M467.741 125.314C467.741 125.314 477.411 133.292 474.994 134.017C472.576 134.742 463.712 143.445 462.1 144.17C460.659 144.818 445.178 149.246 447.595 144.17C450.013 139.093 455.654 136.192 455.654 136.192L457.265 127.49L467.741 125.314Z" fill="#F2F2F2"/>
<path d="M380.84 64.4437C381.949 63.8588 383.259 63.1303 383.291 61.9738C383.262 61.5488 383.096 61.1407 382.813 60.7995C382.53 60.4583 382.142 60.1989 381.698 60.0532C380.804 59.7755 379.857 59.6607 378.913 59.7154C378.551 59.6988 378.188 59.7312 377.836 59.8115C376.919 60.0663 376.39 60.905 375.667 61.4742C374.617 62.3007 373.171 62.5438 371.821 62.8588C369.559 63.387 367.389 64.1961 365.375 65.2628C364.977 65.4438 364.629 65.7017 364.355 66.0181C364.038 66.6007 363.896 67.248 363.945 67.8952C363.763 70.3558 362.124 72.4976 360.9 74.704C359.676 76.9104 358.872 79.659 360.309 81.7591C360.879 82.4126 361.411 83.0922 361.902 83.7953C362.92 85.7042 361.65 88.0546 362.385 90.0658C362.714 90.8575 363.243 91.5701 363.928 92.1477C365.343 93.4304 367.087 94.3804 369.006 94.9145C370.837 95.4219 373.109 95.7601 373.826 97.3591C374.134 98.045 374.071 98.8532 374.505 99.4814C375.043 100.26 376.152 100.511 377.153 100.677C378.277 100.908 379.434 100.983 380.583 100.9C381.158 100.856 381.716 100.706 382.225 100.461C382.734 100.216 383.182 99.8806 383.542 99.4749C383.867 98.9025 384.269 98.3684 384.74 97.8849C385.907 97.0073 387.679 97.7005 389.177 97.468C389.785 97.3649 390.346 97.108 390.797 96.7274C391.248 96.3469 391.568 95.8585 391.721 95.3197C391.762 94.7457 391.938 94.1861 392.237 93.6779C393.168 92.6062 395.616 93.3628 396.231 92.1201C396.63 91.3126 395.795 90.4595 394.987 89.9567C393.67 89.1369 392.198 88.5063 391.017 87.5332C389.836 86.5601 388.962 85.1042 389.332 83.7021C389.886 81.5993 392.937 80.4415 393.038 78.2823C393.096 77.0453 392.108 75.9598 391.002 75.2233C389.896 74.4867 388.615 73.9575 387.627 73.0964C386.904 72.4669 386.359 71.677 385.574 71.1119C384.154 70.0899 382.21 69.9659 380.401 69.7988C379.431 69.7092 375.56 69.3058 375.712 67.9756C375.839 66.8708 379.855 64.9631 380.84 64.4437Z" fill="#2F2E41"/>
<path d="M433.896 34.6626C433.896 34.6626 425.032 37.5634 425.032 41.1895C425.032 44.8156 421.002 56.419 425.032 56.419C429.061 56.419 437.119 53.6352 437.119 53.6352L433.896 34.6626Z" fill="#F2F2F2"/>
<path d="M431.478 86.8778C431.478 86.8778 454.848 79.6256 455.654 79.6256C456.459 79.6256 467.741 73.8239 466.935 71.6483L463.712 53.518C463.712 53.518 450.819 29.5859 459.683 29.5859C468.547 29.5859 473.382 48.4415 473.382 48.4415C473.382 48.4415 492.722 81.076 482.247 88.3282C471.771 95.5803 428.255 108.634 425.837 106.458C423.42 104.283 431.478 86.8778 431.478 86.8778Z" fill="#FFB8B8"/>
<path d="M454.042 39.7391L459.481 44.4564L452.43 50.6172C452.43 50.6172 442.76 46.9912 443.566 49.1668C444.372 51.3425 449.207 57.8694 452.43 57.8694C455.654 57.8694 472.43 48.4416 472.503 45.5408C472.576 42.6399 462.1 32.4869 459.683 31.7617C457.265 31.0364 454.042 39.7391 454.042 39.7391Z" fill="#9F616A"/>
<path d="M443.814 34.6839C443.814 34.6839 455.654 44.0903 457.265 44.0903C458.877 44.0903 461.808 29.9575 461.808 29.9575C461.808 29.9575 452.255 24.356 448.717 25.8832C445.178 27.4104 443.814 34.6839 443.814 34.6839Z" fill="#F2F2F2"/>
<path d="M402.468 95.5805C402.468 95.5805 402.468 85.4275 426.643 85.4275H437.119L432.284 109.36L416.167 113.711L402.468 95.5805Z" fill="#8985A8"/>
<path d="M455.276 13.4171C452.907 13.4069 450.54 13.2755 448.187 13.0237C446.339 9.00529 443.986 5.63351 441.44 4.37642C439.634 2.9215 436.847 1.86419 434.661 1.02822C429.291 -1.02461 420.353 0.255792 419.83 2.59048C409.265 7.13378 411.935 15.1126 411.935 15.1126C413.576 18.2355 417.259 16.8515 420.384 15.4372C421.182 17.7011 423.066 19.6223 425.765 19.7137C430.924 19.8885 433.426 21.8333 432.182 24.3951C430.938 26.957 429.444 33.0442 435.063 32.1186C440.682 31.1931 442.458 33.2062 441.463 34.7535C440.468 36.3008 443.968 31.6764 443.968 31.6764C443.968 31.6764 447.1 35.8745 450.943 32.9358C451.331 32.5989 451.609 32.1716 451.743 31.7014C453.531 32.3937 454.946 32.6564 455.75 32.3328C460.353 30.4792 457.494 26.1267 457.494 26.1267C457.494 26.1267 463.64 25.2783 461.66 25.4189C459.68 25.5596 458.427 23.2495 461.778 19.086C465.128 14.9225 458.381 13.5116 455.276 13.4171Z" fill="#2F2E41"/>
<path d="M424.1 10.153L421.806 9.46606L419.516 15.659L421.81 16.346L424.1 10.153Z" fill="#00BFA6"/>
<path d="M151.097 65.6011C151.097 65.6011 150.135 68.4865 155.585 71.0834C161.036 73.6802 162.639 83.4906 156.226 86.3761C149.814 89.2615 147.89 93.0125 151.097 95.6094C154.303 98.2063 160.074 105.131 152.379 106.862C144.684 108.594 143.722 112.056 145.967 113.499C148.211 114.942 140.837 110.902 140.837 110.902C140.837 110.902 139.554 117.827 132.821 116.096C126.088 114.365 107.171 81.4709 116.79 76.8542C126.409 72.2375 151.097 65.6011 151.097 65.6011Z" fill="#2F2E41"/>
<path d="M126.253 310.221L128.338 327.729L119.305 332.732L110.967 331.481L115.136 310.221H126.253Z" fill="#9F616A"/>
<path d="M133.202 100.116C143.947 100.116 152.657 92.2771 152.657 82.6073C152.657 72.9376 143.947 65.0986 133.202 65.0986C122.457 65.0986 113.747 72.9376 113.747 82.6073C113.747 92.2771 122.457 100.116 133.202 100.116Z" fill="#9F616A"/>
<path d="M139.803 91.0491C139.803 91.0491 141.54 117.625 143.624 117.625C145.709 117.625 119.305 116.374 119.305 116.374C119.305 116.374 130.423 98.8655 124.864 93.2377C119.305 87.6099 139.803 91.0491 139.803 91.0491Z" fill="#9F616A"/>
<path d="M110.967 231.432L120 262.697L113.051 315.849L129.033 314.598L135.286 231.432H110.967Z" fill="#2F2E41"/>
<path opacity="0.2" d="M110.967 231.432L120 262.697L113.051 315.849L129.033 314.598L135.286 231.432H110.967Z" fill="black"/>
<path d="M124.864 324.603C124.864 324.603 125.559 320.851 132.507 324.603C139.455 328.355 168.639 340.236 153.352 342.737C138.066 345.238 106.798 339.61 106.798 337.734C106.798 335.858 106.103 323.977 108.883 325.228C111.662 326.479 120.695 334.608 124.864 324.603Z" fill="#2F2E41"/>
<path d="M115.831 320.226C115.831 320.226 104.714 335.859 104.019 340.236C103.324 344.613 92.9014 330.231 92.9014 330.231L102.629 313.973L115.831 320.226Z" fill="#9F616A"/>
<path d="M152.657 233.933L140.15 271.451C140.15 271.451 117.916 324.603 116.526 323.978C115.136 323.352 98.4601 319.6 97.7653 317.724C97.0704 315.849 118.61 265.198 118.61 265.198L121.39 232.682L152.657 233.933Z" fill="#2F2E41"/>
<path d="M90.8169 327.729C92.7141 327.612 94.6047 328.031 96.2243 328.928C97.8439 329.825 99.1115 331.155 99.8498 332.732C102.629 338.36 106.103 338.985 106.798 339.61C107.493 340.236 104.714 353.367 106.798 354.618C108.883 355.868 110.967 369 104.019 369C97.0705 369 85.9531 362.121 86.6479 360.871C87.3427 359.62 87.3428 350.866 85.2582 347.114C83.1737 343.362 79.6995 337.109 85.2582 333.357C90.8169 329.605 90.8169 327.729 90.8169 327.729Z" fill="#2F2E41"/>
<path d="M156.826 175.779L158.216 187.034C158.216 187.034 168.639 196.414 172.113 207.67C175.587 218.925 204.075 237.684 195.737 240.186C187.399 242.687 177.671 243.938 153.352 240.186C129.033 236.434 90.8169 244.563 90.8169 223.928C90.8169 223.928 85.9531 218.3 82.4789 226.429C80.0318 231.981 77.2482 237.409 74.1409 242.687C74.1409 242.687 65.8028 229.555 68.5822 223.928C71.3615 218.3 68.5822 218.925 72.0563 212.672C75.5305 206.419 92.9014 183.282 99.8498 182.032C106.798 180.781 120 164.523 119.305 162.647C118.61 160.771 156.826 175.779 156.826 175.779Z" fill="#00BFA6"/>
<path d="M119.305 105.744C119.305 105.744 147.793 111.372 149.183 115.124C149.965 117.234 153.605 121.125 156.64 124.126C161.764 129.117 165.17 135.337 166.447 142.034C167.171 146.024 164.125 149.611 162.732 154.206C158.563 167.962 155.437 164.523 159.606 174.528C163.775 184.533 138.761 188.285 129.033 183.908C119.305 179.531 108.535 153.58 108.535 150.454C108.535 147.327 99.155 111.997 106.798 109.496C114.441 106.995 119.305 105.744 119.305 105.744Z" fill="#575A88"/>
<path d="M158.911 135.759L167.249 168.9L194.695 179.843C194.695 179.843 215.54 175.466 216.235 182.345C216.688 186.835 192.61 188.598 192.61 188.598L152.657 174.528L143.624 143.888L158.911 135.759Z" fill="#9F616A"/>
<path d="M149.183 123.253C149.183 123.253 166.554 132.632 162.385 137.635C158.216 142.637 147.793 150.766 145.014 150.766C142.235 150.766 140.15 135.759 140.15 131.382C140.15 127.005 149.183 123.253 149.183 123.253Z" fill="#575A88"/>
<path d="M131.802 59.8716C131.802 59.8716 130.737 63.068 136.775 65.9449C142.813 68.8217 144.589 79.6896 137.485 82.8861C130.381 86.0826 128.25 90.238 131.802 93.1148C135.354 95.9916 141.747 103.663 133.223 105.581C124.698 107.499 123.633 111.335 126.119 112.933C128.606 114.531 120.436 110.056 120.436 110.056C120.436 110.056 119.016 117.728 111.557 115.81C104.098 113.892 96.6556 79.0293 104.97 70.0501C112.701 61.7011 131.802 59.8716 131.802 59.8716Z" fill="#2F2E41"/>
<path d="M134.071 56.5811C134.07 51.8981 118.501 55.2631 111.827 61.8016C107.204 66.3294 100.184 73.1413 106.067 77.9431C111.95 82.7448 95.9829 89.0394 91.7007 90.9478C87.4185 92.8563 78.9636 98.6924 86.5978 102.608C94.232 106.523 94.1089 110.475 91.2358 111.411C88.3628 112.347 97.5702 110.02 97.5702 110.02C97.5702 110.02 96.64 117.752 104.397 117.715C112.155 117.678 134.41 79.3116 129.093 68.6476C124.15 58.7319 134.071 56.5811 134.071 56.5811Z" fill="#2F2E41"/>
<path d="M130.699 55.555C151.518 54.4268 153.607 68.5298 153.607 68.5298C153.463 76.6912 139.061 72.7145 135.062 73.9311C130.236 70.807 120.934 64.8958 114.281 60.6773C119.111 57.6168 124.801 55.8416 130.699 55.555Z" fill="#2F2E41"/>
<path d="M292.725 219.052H286.068V358.851H292.725V219.052Z" fill="#381E1D"/>
<path d="M286.068 219.052C286.068 219.052 297.385 206.271 306.706 222.847C306.706 222.847 302.268 230.236 300.936 226.641C299.605 223.047 296.415 217.672 292.684 220.859" fill="#381E1D"/>
<path d="M285.067 194.635C285.067 194.635 301.813 209.47 293.566 222.001C293.311 222.389 292.961 222.719 292.542 222.966C292.124 223.214 291.648 223.372 291.152 223.429C290.655 223.487 290.15 223.441 289.676 223.296C289.202 223.152 288.771 222.911 288.415 222.594C285.572 220.064 281.077 213.779 275.555 198.23L285.067 194.635Z" fill="#FDA57D"/>
<path opacity="0.1" d="M273.307 116.5C273.307 116.5 290.617 121.293 287.288 140.066C283.959 158.839 285.291 172.02 285.291 172.02L289.729 195.986L281.74 205.771C281.74 205.771 267.981 193.389 263.321 180.807C258.661 168.226 259.105 118.497 273.307 116.5Z" fill="black"/>
<path d="M273.085 116.301C273.085 116.301 290.395 121.094 287.066 139.867C283.737 158.639 285.069 171.82 285.069 171.82L289.507 195.786L281.518 205.572C281.518 205.572 267.76 193.19 263.099 180.608C258.439 168.026 258.883 118.298 273.085 116.301Z" fill="#00BFA6"/>
<path d="M252.788 330.076L249.95 349.2C249.95 349.2 257.234 351.884 259.417 351.276C261.6 350.669 265.426 353.137 265.426 353.137C265.426 353.137 281.703 357.765 284.9 353.607C288.096 349.448 280.846 348.177 274.963 345.042C269.081 341.908 266.593 329.808 266.593 329.808L252.788 330.076Z" fill="black"/>
<path d="M283.848 195.087V265.785L268.758 333.288H252.78L255.221 268.581C255.221 268.581 238.577 216.256 245.901 196.685L283.848 195.087Z" fill="#333333"/>
<path d="M271.539 204.007C271.539 204.007 294.805 206.971 296.456 221.458C296.507 221.906 296.444 222.359 296.271 222.782C296.098 223.205 295.821 223.587 295.459 223.899C295.098 224.21 294.662 224.444 294.185 224.581C293.708 224.719 293.203 224.757 292.707 224.692C288.75 224.179 280.983 221.533 266.268 211.987L271.539 204.007Z" fill="#FDA57D"/>
<path d="M274.417 113.105C274.417 113.105 270.644 118.897 272.198 128.882C272.198 128.882 249.895 127.185 250.561 115.602C250.561 115.602 261.435 113.205 263.987 104.318L274.417 113.105Z" fill="#FDA57D"/>
<path d="M237.253 334.271L234.416 353.394C234.416 353.394 241.7 356.078 243.883 355.471C246.066 354.863 249.892 357.331 249.892 357.331C249.892 357.331 266.169 361.959 269.366 357.801C272.562 353.643 265.312 352.371 259.429 349.236C253.547 346.102 251.059 334.002 251.059 334.002L237.253 334.271Z" fill="black"/>
<path opacity="0.1" d="M267.094 200.579V271.277L252.003 338.78H236.025L238.466 274.073C238.466 274.073 221.823 221.749 229.146 202.177L267.094 200.579Z" fill="black"/>
<path d="M266.428 200.579V271.277L251.338 338.78H235.36L237.801 274.073C237.801 274.073 221.157 221.749 228.48 202.177L266.428 200.579Z" fill="#333333"/>
<path opacity="0.1" d="M258.439 116.7C258.439 116.7 244.458 108.512 235.138 132.877C225.817 157.241 229.59 202.177 229.59 202.177C229.59 202.177 269.313 213.76 283.516 197.583V173.418C283.516 173.418 291.061 145.858 280.409 121.892C280.409 121.892 271.088 125.288 258.439 116.7Z" fill="black"/>
<path opacity="0.1" d="M257.995 117.299C257.995 117.299 244.014 109.111 234.694 133.476C225.373 157.841 229.146 202.776 229.146 202.776C229.146 202.776 268.869 214.359 283.072 198.182V174.017C283.072 174.017 290.617 146.457 279.965 122.492C279.965 122.492 270.644 125.887 257.995 117.299Z" fill="black"/>
<path d="M257.995 116.7C257.995 116.7 244.014 108.512 234.694 132.877C225.373 157.241 229.146 202.177 229.146 202.177C229.146 202.177 268.869 213.76 283.072 197.583V173.418C283.072 173.418 290.617 145.858 279.965 121.892C279.965 121.892 270.644 125.288 257.995 116.7Z" fill="#00BFA6"/>
<path opacity="0.1" d="M243.792 128.882C243.792 128.882 261.102 133.675 257.773 152.448C254.444 171.221 255.776 184.402 255.776 184.402L277.968 204.573L269.979 214.359C269.979 214.359 238.466 205.771 233.806 193.19C229.146 180.608 229.59 130.879 243.792 128.882Z" fill="black"/>
<path opacity="0.1" d="M242.683 129.481C242.683 129.481 259.992 134.275 256.664 153.047C253.335 171.82 254.666 185.001 254.666 185.001L276.858 205.172L268.869 214.958C268.869 214.958 237.357 206.371 232.697 193.789C228.036 181.207 228.48 131.479 242.683 129.481Z" fill="black"/>
<path d="M243.127 128.882C243.127 128.882 260.436 133.675 257.107 152.448C253.779 171.221 255.11 184.402 255.11 184.402L277.302 204.573L269.313 214.359C269.313 214.359 237.801 205.771 233.14 193.19C228.48 180.608 228.924 130.879 243.127 128.882Z" fill="#00BFA6"/>
<path opacity="0.1" d="M263.654 105.017L274.084 113.804C273.914 114.081 273.759 114.365 273.62 114.655C272.107 115.018 270.547 115.202 268.98 115.202C264.996 115.202 261.53 113.381 258.55 111.408C260.633 109.714 262.419 108.072 263.654 105.017Z" fill="black"/>
<path d="M266.317 107.014C276.244 107.014 284.292 99.7714 284.292 90.8373C284.292 81.9032 276.244 74.6606 266.317 74.6606C256.39 74.6606 248.342 81.9032 248.342 90.8373C248.342 99.7714 256.39 107.014 266.317 107.014Z" fill="#E0E0E0"/>
<path d="M269.313 114.503C279.24 114.503 287.288 107.261 287.288 98.3266C287.288 89.3924 279.24 82.1499 269.313 82.1499C259.385 82.1499 251.338 89.3924 251.338 98.3266C251.338 107.261 259.385 114.503 269.313 114.503Z" fill="#FDA57D"/>
<path d="M251.449 90.8374C251.449 90.8374 244.718 106.699 258.957 111.55C260.143 111.005 261.168 110.215 261.948 109.244C262.729 108.274 263.243 107.15 263.448 105.967C263.653 104.783 263.543 103.572 263.128 102.434C262.712 101.295 262.003 100.262 261.058 99.4181L251.449 90.8374Z" fill="#E0E0E0"/>
<path d="M283.857 87.286C283.857 87.286 290.062 88.6404 279.188 92.0355C277.398 92.5759 275.751 93.4422 274.349 94.5803C272.947 95.7184 271.821 97.104 271.04 98.6508C270.553 99.5941 269.856 100.437 268.993 101.129C268.129 101.82 267.118 102.345 266.02 102.671C264.922 102.997 263.762 103.116 262.611 103.023C261.46 102.929 260.343 102.624 259.328 102.126L255.887 100.423L249.895 87.8415L256.997 80.4522L269.202 79.0542L283.857 87.286Z" fill="#E0E0E0"/>
<path d="M264.542 106.415C265.522 106.415 266.317 105.163 266.317 103.619C266.317 102.075 265.522 100.823 264.542 100.823C263.561 100.823 262.766 102.075 262.766 103.619C262.766 105.163 263.561 106.415 264.542 106.415Z" fill="#FDA57D"/>
<path d="M258.439 116.7C258.439 116.7 270.533 133.775 277.413 133.775C284.292 133.775 272.588 117.764 272.588 117.764L272.309 122.192L258.439 116.7Z" fill="#333333"/>
<path d="M328.107 265.943C287.914 265.943 246.286 262.268 203.663 254.932C89.0337 235.204 27.0922 196.939 23.7015 195.295L13.4837 180.003L13.4863 180.004V180.004C14.4428 180.466 95.8423 219.431 207.688 238.602C310.327 256.193 460.508 260.234 593.103 179.577L590.189 197.995C529.182 235.106 472.959 253.676 396.814 262.194C374.019 264.717 351.073 265.969 328.107 265.943Z" fill="#F55F44"/>
<path d="M30.6436 167.543H17.237V338.179H30.6436V167.543Z" fill="#E0E0E0"/>
<path d="M12.8645 332.577H35.0162C38.428 332.577 41.7002 333.797 44.1128 335.968C46.5253 338.139 47.8807 341.084 47.8807 344.155V354.122H0V344.155C1.79679e-06 341.084 1.35537 338.139 3.76794 335.968C6.18051 333.797 9.45265 332.577 12.8645 332.577Z" fill="#E0E0E0"/>
<path opacity="0.1" d="M23.9403 187.365C31.3446 187.365 37.3469 181.963 37.3469 175.3C37.3469 168.636 31.3446 163.235 23.9403 163.235C16.5361 163.235 10.5338 168.636 10.5338 175.3C10.5338 181.963 16.5361 187.365 23.9403 187.365Z" fill="black"/>
<path d="M23.9403 186.503C31.3446 186.503 37.3469 181.101 37.3469 174.438C37.3469 167.775 31.3446 162.373 23.9403 162.373C16.5361 162.373 10.5338 167.775 10.5338 174.438C10.5338 181.101 16.5361 186.503 23.9403 186.503Z" fill="#E0E0E0"/>
<path opacity="0.1" d="M17.2371 333.434C17.2371 333.434 25.8556 336.015 30.6436 333.435L17.2371 333.434Z" fill="black"/>
<path d="M594.763 167.543H581.356V338.179H594.763V167.543Z" fill="#E0E0E0"/>
<path d="M576.984 332.577H599.136C602.547 332.577 605.82 333.797 608.232 335.968C610.645 338.139 612 341.084 612 344.155V354.122H564.119V344.155C564.119 341.084 565.475 338.139 567.887 335.968C570.3 333.797 573.572 332.577 576.984 332.577Z" fill="#E0E0E0"/>
<path opacity="0.1" d="M588.06 187.365C595.464 187.365 601.466 181.963 601.466 175.3C601.466 168.636 595.464 163.235 588.06 163.235C580.655 163.235 574.653 168.636 574.653 175.3C574.653 181.963 580.655 187.365 588.06 187.365Z" fill="black"/>
<path d="M588.06 186.503C595.464 186.503 601.466 181.101 601.466 174.438C601.466 167.775 595.464 162.373 588.06 162.373C580.655 162.373 574.653 167.775 574.653 174.438C574.653 181.101 580.655 186.503 588.06 186.503Z" fill="#E0E0E0"/>
<path opacity="0.1" d="M581.356 333.434C581.356 333.434 589.975 336.015 594.763 333.435L581.356 333.434Z" fill="black"/>
</g>
<defs>
<clipPath id="clip0">
<rect width="612" height="369" fill="white"/>
</clipPath>
</defs>
</svg>
